<?xml version="1.0" encoding="UTF-8" standalone="no"?>
<!-- Created with Inkscape (http://www.inkscape.org/) -->

<svg
   width="94mm"
   height="94mm"
   viewBox="0 0 94.000001 94.000001"
   version="1.1"
   id="svg5"
   inkscape:version="1.1.2 (b8e25be833, 2022-02-05)"
   sodipodi:docname="darkmodeicon.svg"
   xmlns:inkscape="http://www.inkscape.org/namespaces/inkscape"
   xmlns:sodipodi="http://sodipodi.sourceforge.net/DTD/sodipodi-0.dtd"
   xmlns="http://www.w3.org/2000/svg"
   xmlns:svg="http://www.w3.org/2000/svg">
  <sodipodi:namedview
     id="namedview7"
     pagecolor="#ffffff"
     bordercolor="#666666"
     borderopacity="1.0"
     inkscape:pageshadow="2"
     inkscape:pageopacity="0.0"
     inkscape:pagecheckerboard="0"
     inkscape:document-units="mm"
     showgrid="false"
     fit-margin-top="0"
     fit-margin-left="0"
     fit-margin-right="0"
     fit-margin-bottom="0"
     inkscape:snap-global="false"
     inkscape:zoom="0.99597362"
     inkscape:cx="447.301"
     inkscape:cy="219.88534"
     inkscape:window-width="1368"
     inkscape:window-height="745"
     inkscape:window-x="-8"
     inkscape:window-y="-8"
     inkscape:window-maximized="1"
     inkscape:current-layer="layer1" />
  <defs
     id="defs2">
    <inkscape:path-effect
       effect="skeletal"
       id="path-effect2506"
       is_visible="true"
       lpeversion="1"
       pattern="M 0,4.9921382 C 0,2.2364779 2.2364779,0 4.9921382,0 c 2.7556603,0 4.9921383,2.2364779 4.9921383,4.9921382 0,2.7556603 -2.236478,4.9921383 -4.9921383,4.9921383 C 2.2364779,9.9842765 0,7.7477985 0,4.9921382 Z"
       copytype="single_stretched"
       prop_scale="1"
       scale_y_rel="false"
       spacing="0"
       normal_offset="0"
       tang_offset="0"
       prop_units="false"
       vertical_pattern="false"
       hide_knot="false"
       fuse_tolerance="0" />
  </defs>
  <g
     inkscape:label="Layer 1"
     inkscape:groupmode="layer"
     id="layer1"
     transform="translate(-61.134323,-67.180092)">
    <path
       id="path1849"
       style="fill:#000000;stroke-width:0.999999"
       d="M 177.63867 0 A 177.6378 177.6378 0 0 0 0 177.63867 A 177.6378 177.6378 0 0 0 177.63867 355.27539 A 177.6378 177.6378 0 0 0 355.27539 177.63867 A 177.6378 177.6378 0 0 0 177.63867 0 z M 176.71875 47.541016 L 176.71875 177.63867 L 176.71875 307.73438 A 130.0962 130.0962 0 0 1 64.052734 242.68555 A 130.0962 130.0962 0 0 1 64.052734 112.58984 A 130.0962 130.0962 0 0 1 176.71875 47.541016 z "
       transform="matrix(0.26458333,0,0,0.26458333,61.134323,67.180092)" />
  </g>
</svg>
