<?xml version="1.0" encoding="UTF-8" standalone="no"?>
<!-- Created with Inkscape (http://www.inkscape.org/) -->

<svg
   width="108.449mm"
   height="108.93668mm"
   viewBox="0 0 108.44899 108.93666"
   version="1.1"
   id="svg5"
   inkscape:version="1.1.2 (b8e25be833, 2022-02-05)"
   sodipodi:docname="searchicon.svg"
   xmlns:inkscape="http://www.inkscape.org/namespaces/inkscape"
   xmlns:sodipodi="http://sodipodi.sourceforge.net/DTD/sodipodi-0.dtd"
   xmlns="http://www.w3.org/2000/svg"
   xmlns:svg="http://www.w3.org/2000/svg">
  <sodipodi:namedview
     id="namedview7"
     pagecolor="#ffffff"
     bordercolor="#666666"
     borderopacity="1.0"
     inkscape:pageshadow="2"
     inkscape:pageopacity="0.0"
     inkscape:pagecheckerboard="0"
     inkscape:document-units="mm"
     showgrid="false"
     fit-margin-top="0"
     fit-margin-left="0"
     fit-margin-right="0"
     fit-margin-bottom="0"
     inkscape:snap-global="false"
     inkscape:zoom="1.4085194"
     inkscape:cx="199.85525"
     inkscape:cy="323.03424"
     inkscape:window-width="1366"
     inkscape:window-height="745"
     inkscape:window-x="1360"
     inkscape:window-y="-4"
     inkscape:window-maximized="1"
     inkscape:current-layer="layer1" />
  <defs
     id="defs2" />
  <g
     inkscape:label="Layer 1"
     inkscape:groupmode="layer"
     id="layer1"
     transform="translate(-52.765715,-57.343084)">
    <path
       id="path1032"
       style="fill:#000000;fill-opacity:1;stroke:#000000;stroke-width:3.24612;stroke-linecap:square;stroke-linejoin:round;stroke-miterlimit:4;stroke-dasharray:none;stroke-opacity:1"
       d="M 100.02264,58.966144 A 45.633841,45.258151 0 0 0 54.388775,104.22431 45.633841,45.258151 0 0 0 100.02264,149.48249 45.633841,45.258151 0 0 0 145.6565,104.22431 45.633841,45.258151 0 0 0 100.02264,58.966144 Z m 0,15.840221 a 29.661995,29.417797 0 0 1 29.66215,29.417945 29.661995,29.417797 0 0 1 -29.66215,29.41796 29.661995,29.417797 0 0 1 -29.662154,-29.41796 29.661995,29.417797 0 0 1 29.662154,-29.417945 z" />
    <path
       id="rect2297"
       style="fill:#000000;fill-opacity:1;stroke:#000000;stroke-width:17;stroke-linecap:round;stroke-linejoin:round;stroke-miterlimit:0.9;stroke-dasharray:none;paint-order:normal"
       d="m 127.12407,131.12082 -0.54353,0.51144 25.591,26.14784 0.54354,-0.51144 z"
       sodipodi:nodetypes="ccccc" />
  </g>
</svg>
