<?xml version="1.0" encoding="UTF-8" standalone="no"?>
<!-- Created with Inkscape (http://www.inkscape.org/) -->

<svg
   width="158.75mm"
   height="158.75mm"
   viewBox="0 0 158.75 158.75"
   version="1.1"
   id="svg5"
   inkscape:version="1.1.2 (b8e25be833, 2022-02-05)"
   sodipodi:docname="worldicon.svg"
   xmlns:inkscape="http://www.inkscape.org/namespaces/inkscape"
   xmlns:sodipodi="http://sodipodi.sourceforge.net/DTD/sodipodi-0.dtd"
   xmlns="http://www.w3.org/2000/svg"
   xmlns:svg="http://www.w3.org/2000/svg">
  <sodipodi:namedview
     id="namedview7"
     pagecolor="#ffffff"
     bordercolor="#666666"
     borderopacity="1.0"
     inkscape:pageshadow="2"
     inkscape:pageopacity="0.0"
     inkscape:pagecheckerboard="0"
     inkscape:document-units="mm"
     showgrid="false"
     fit-margin-top="0"
     fit-margin-left="0"
     fit-margin-right="0"
     fit-margin-bottom="0"
     inkscape:snap-global="false"
     inkscape:zoom="0.7042597"
     inkscape:cx="528.9242"
     inkscape:cy="305.28511"
     inkscape:window-width="1368"
     inkscape:window-height="745"
     inkscape:window-x="-8"
     inkscape:window-y="-8"
     inkscape:window-maximized="1"
     inkscape:current-layer="layer1" />
  <defs
     id="defs2" />
  <g
     inkscape:label="Layer 1"
     inkscape:groupmode="layer"
     id="layer1"
     transform="translate(-25.896896,-38.519318)">
    <path
       style="fill:#000000;stroke-width:0.352778"
       d="m 99.098289,196.65188 c -28.14268,-2.45592 -52.738793,-19.13003 -64.886373,-43.98754 -5.80747,-11.88378 -8.11737,-21.88491 -8.11737,-35.14571 0,-13.14283 2.27108,-23.11719 7.91195,-34.748613 11.41352,-23.534575 33.831073,-39.91113 59.976513,-43.814265 5.55635,-0.829481 17.021431,-0.829481 22.577771,0 34.86176,5.204355 62.1117,32.411658 67.20275,67.097598 4.99528,34.03337 -12.71441,67.54012 -43.72192,82.72194 -4.69712,2.2998 -12.82138,5.27329 -15.89119,5.8162 -1.34001,0.23698 -1.38018,0.21814 -0.85344,-0.40028 0.30402,-0.35693 1.00108,-1.44272 1.54903,-2.41286 1.81006,-3.20467 3.08611,-4.4677 7.21339,-7.13981 9.07101,-5.87281 13.11113,-9.19338 16.38989,-13.47085 1.45557,-1.89893 3.23078,-3.91212 3.94492,-4.47375 2.82546,-2.22206 5.2058,-4.88486 7.5606,-8.45773 4.43226,-6.72493 7.42372,-12.90705 7.93615,-16.40073 0.20724,-1.41291 0.12234,-1.74797 -0.68643,-2.70914 -1.27064,-1.51007 -3.4592,-2.14704 -8.76981,-2.55239 -5.9155,-0.45152 -6.26812,-0.65796 -6.74535,-3.94924 -0.42748,-2.94819 -0.90097,-3.26846 -7.9647,-5.38741 -1.06715,-0.32011 -4.11812,-1.62378 -6.77994,-2.89703 -3.93849,-1.88393 -5.2592,-2.34868 -7.09271,-2.49586 -2.9575,-0.2374 -4.17747,0.20308 -8.23455,2.97315 -4.54708,3.10463 -5.01348,3.27024 -8.29532,2.94549 -3.03961,-0.30078 -5.69051,-1.42592 -6.72597,-2.85475 -0.35896,-0.49533 -0.78976,-1.87056 -0.95733,-3.05606 -0.55622,-3.93505 -1.91414,-5.75919 -4.87719,-6.55168 -1.402141,-0.37502 -1.519091,-0.49048 -1.318491,-1.30159 0.580271,-2.34618 0.609431,-4.44778 0.068,-4.89715 -0.64302,-0.53367 -1.00024,-0.37922 -4.58741,1.98345 -4.18887,2.75898 -6.42874,2.35638 -8.21341,-1.47632 -2.26628,-4.86698 -0.0501,-9.29202 5.76199,-11.50502 4.99693,-1.90261 9.082131,-1.24086 13.084281,2.11949 1.39247,1.16917 2.69182,2.12576 2.88743,2.12576 0.56786,0 0.41484,-1.5688 -0.39307,-4.02987 -0.46723,-1.42329 -0.66038,-2.63283 -0.51373,-3.21712 0.12925,-0.51498 1.3393,-2.10304 2.68901,-3.52903 l 2.45401,-2.59272 0.002,-2.576043 c 10e-4,-1.416826 0.16447,-3.161157 0.36309,-3.876287 0.41053,-1.478103 2.07923,-3.051535 3.54779,-3.345247 0.88112,-0.176223 0.96902,-0.313923 0.78564,-1.230778 -0.17155,-0.857769 -0.009,-1.208846 0.96245,-2.075963 1.30708,-1.166957 1.4842,-1.213947 2.40599,-0.638281 0.53659,0.335104 0.93649,0.20755 2.30823,-0.736237 2.00456,-1.379171 1.98731,-2.000836 -0.0872,-3.145229 -0.83726,-0.46186 -1.61018,-1.068773 -1.71759,-1.348695 -0.24864,-0.647928 1.39215,-2.384378 3.33593,-3.530435 0.82462,-0.486196 1.492,-0.987971 1.48306,-1.115055 -0.0239,-0.338378 -4.73492,-3.960696 -7.39224,-5.68384 -2.09407,-1.357905 -2.44612,-1.47231 -4.05694,-1.318408 -1.44716,0.138265 -2.15513,-0.01903 -3.94269,-0.875967 -1.41179,-0.676798 -2.59158,-1.004893 -3.35139,-0.932004 -1.32765,0.127365 -1.28375,-0.155276 -0.81278,5.234076 0.4074,4.661892 -0.45258,4.894582 -5.53998,1.498991 -1.419521,-0.947458 -3.335001,-2.156688 -4.256631,-2.687179 -0.92164,-0.530491 -1.6757,-1.168289 -1.6757,-1.41733 0,-0.655336 1.29598,-1.744547 3.61597,-3.039066 1.712151,-0.955347 2.028471,-1.284906 2.028471,-2.113315 0,-0.539804 0.23813,-1.179088 0.52917,-1.420631 0.96174,-0.79817 0.55933,-0.984649 -2.396011,-1.110327 -2.92051,-0.124197 -2.92934,-0.127481 -5.53124,-2.056711 -2.44419,-1.812298 -2.75099,-1.940506 -4.9395,-2.064168 -2.93115,-0.165625 -3.60798,0.364523 -2.40991,1.887625 l 0.77834,0.989495 -1.64358,-0.225277 c -0.90396,-0.123902 -3.11871,-0.813933 -4.92167,-1.533403 -3.85659,-1.538975 -6.70022,-1.756716 -8.74615,-0.669705 -2.75228,1.462295 -12.271433,7.957874 -13.700183,9.348581 -1.78951,1.741869 -1.67738,2.229052 0.26214,1.138981 2.03045,-1.141178 5.90219,-2.530091 7.0529,-2.530091 1.731913,0 1.957433,0.674132 2.171353,6.490666 0.10776,2.930064 0.31307,5.578858 0.45625,5.886208 0.19845,0.426017 0.0687,0.551773 -0.54592,0.529167 -0.664453,-0.02444 -0.858033,0.218521 -1.100703,1.381459 -0.16195,0.776111 -0.91132,2.998611 -1.66526,4.938889 -2.8673,7.378975 -2.84318,9.490724 0.18573,16.259444 1.51657,3.38909 2.096253,5.14117 2.265503,6.8475 0.18967,1.91225 0.47457,2.65558 1.71554,4.47604 1.44496,2.11967 2.19823,2.92088 2.19601,2.33575 -7e-4,-0.15697 -0.55621,-2.09181 -1.23472,-4.29964 -0.6785,-2.20784 -1.23364,-4.16189 -1.23364,-4.34235 0,-0.81356 0.70504,0.23549 1.2393,1.84397 0.32322,0.97315 1.68029,3.23347 3.01569,5.02293 1.9186,2.57098 2.50828,3.66065 2.81064,5.19386 0.21045,1.06715 0.55095,2.37512 0.75667,2.9066 0.47786,1.23457 2.81673,3.35344 4.47569,4.0547 4.38269,1.85259 15.74549,6.09034 16.87186,6.29234 1.63818,0.29378 2.32678,0.86394 3.804941,3.15052 0.8352,1.29197 1.79134,2.14874 3.57371,3.2023 3.63068,2.14611 4.49099,2.37617 5.60596,1.49913 0.80982,-0.637 1.03643,-0.66712 2.00395,-0.26636 3.58831,1.48633 4.09176,3.818 1.65682,7.67345 -2.59257,4.10504 -3.12183,5.5681 -3.12567,8.64037 -0.004,3.124 0.16523,3.55665 2.42585,6.20551 0.8952,1.04895 2.36058,3.1127 3.25638,4.58612 1.57372,2.58843 3.15216,4.12835 6.61724,6.45577 1.98401,1.33262 2.6727,2.77749 2.65577,5.57177 -0.0173,2.86546 -0.94097,5.69751 -3.96408,12.15502 l -2.30477,4.92307 -0.13787,3.71999 c -0.11691,3.15414 -0.0354,3.91526 0.53602,5.00384 l 0.67391,1.28386 -2.4997,0.39786 c -5.89731,0.93863 -13.95081,1.29724 -19.080251,0.84961 z M 123.78691,112.7396 c 2.87522,-1.09806 0.92651,-2.38425 -2.40241,-1.58565 l -1.91882,0.46031 -3.30453,-1.77789 c -4.82455,-2.59568 -8.42413,-3.48999 -10.20689,-2.53589 -1.36999,0.7332 -0.73723,1.2766 2.14856,1.84513 1.77182,0.34907 4.09531,1.17688 6.21058,2.21271 1.85881,0.91024 3.79958,1.78978 4.31282,1.95452 1.24086,0.3983 3.18108,0.18278 5.16069,-0.57324 z M 113.31523,55.711961 c 0.23283,-0.232833 0.42333,-0.94918 0.42333,-1.591882 0,-1.024385 -0.22849,-1.314381 -1.85208,-2.350638 -4.2467,-2.710452 -5.46678,-3.143999 -9.34861,-3.321965 -2.51024,-0.115084 -3.615971,-0.04625 -3.615971,0.22511 0,0.715072 1.558301,1.391918 4.202761,1.825468 1.91959,0.314708 2.84196,0.65545 3.46745,1.280943 l 0.85218,0.852181 -0.7157,1.213023 c -0.80031,1.356432 -0.69611,1.494366 1.4483,1.917134 2.27315,0.448148 4.66379,0.425176 5.13834,-0.04937 z m 15.52506,-0.868637 c 0.0598,-0.419542 -0.37531,-1.62038 -0.96685,-2.668528 -0.59153,-1.048148 -1.23275,-2.734796 -1.42492,-3.748108 -0.69667,-3.673529 -2.87296,-5.269595 -9.04359,-6.632469 -2.30754,-0.509655 -5.30678,-0.997218 -6.66498,-1.083475 -2.38914,-0.15173 -2.50623,-0.120576 -3.60077,0.958076 -2.33061,2.296795 -1.76344,3.645994 1.68415,4.006339 3.01803,0.315446 5.12459,1.341652 9.57878,4.666296 4.27278,3.189233 8.46264,5.531696 9.60265,5.368637 0.43338,-0.06199 0.77074,-0.411959 0.83553,-0.866768 z m -26.15354,-9.26955 c 1.67819,-0.761949 2.69288,-2.074304 2.52416,-3.264611 -0.10414,-0.734658 -0.28948,-0.809911 -1.89833,-0.770771 -1.93235,0.04701 -4.037901,0.924086 -4.037901,1.681998 0,0.259893 -0.3175,0.876168 -0.70556,1.369501 -0.38805,0.493332 -0.70555,1.070366 -0.70555,1.282297 0,0.629309 3.218471,0.43018 4.823181,-0.298414 z"
       id="path615" />
    <circle
       style="fill:none;stroke:#000000;stroke-width:11.0384;stroke-linecap:square;stroke-linejoin:round;stroke-miterlimit:0.9;stroke-opacity:1"
       id="path6234"
       cx="105.34765"
       cy="117.58853"
       r="73.723503" />
    <path
       style="fill:none;stroke:#000000;stroke-width:7.70001;stroke-linecap:square;stroke-linejoin:round;stroke-miterlimit:0.9;stroke-opacity:1"
       id="path7184"
       d="m 126.72848,55.354751 c -1.02377,-0.69156 -2.095,-1.297264 -2.75688,-2.369022 -0.18144,-0.504633 -0.30169,-0.862928 0.23844,-1.125162 0,0 -0.9229,0.358205 -0.9229,0.358205 v 0 c -0.47819,0.375632 -0.36927,0.73045 -0.16312,1.259892 0.67368,1.081058 1.741,1.700758 2.77187,2.409189 0,0 0.83259,-0.533102 0.83259,-0.533102 z" />
    <path
       style="fill:none;stroke:#000000;stroke-width:7.70001;stroke-linecap:square;stroke-linejoin:round;stroke-miterlimit:0.9;stroke-opacity:1"
       id="path7186"
       d="m 122.21718,54.267247 c -0.66838,-0.502515 -2.19368,-0.879363 -2.38753,-1.777808 -0.0337,-0.156008 0.0198,-0.318584 0.0297,-0.477876 0.20147,-0.3346 0.7889,-1.034892 1.21399,-1.071834 0.12988,-0.01129 -0.40592,0.208015 -0.28832,0.264271 0.18487,0.08843 0.40019,-0.0946 0.60428,-0.113137 0.21573,-0.01959 0.43323,-5.03e-4 0.64984,-7.41e-4 0,0 0.79105,-0.573482 0.79105,-0.573482 v 0 c -1.26666,-0.02736 -1.3908,0.101133 -2.67137,0.775385 -0.51905,0.273294 -0.94031,0.611866 -1.17639,1.162551 -0.002,0.173808 -0.047,0.352779 -0.005,0.521423 0.25558,1.024154 1.69329,1.247386 2.41312,1.835101 0,0 0.82656,-0.543849 0.82656,-0.543849 z" />
  </g>
</svg>
