<?xml version="1.0" encoding="UTF-8" standalone="no"?>
<!-- Created with Inkscape (http://www.inkscape.org/) -->

<svg
   width="215mm"
   height="215mm"
   viewBox="0 0 215.00001 215"
   version="1.1"
   id="svg5"
   inkscape:version="1.1.2 (b8e25be833, 2022-02-05)"
   sodipodi:docname="circle_logo.svg"
   xmlns:inkscape="http://www.inkscape.org/namespaces/inkscape"
   xmlns:sodipodi="http://sodipodi.sourceforge.net/DTD/sodipodi-0.dtd"
   xmlns:xlink="http://www.w3.org/1999/xlink"
   xmlns="http://www.w3.org/2000/svg"
   xmlns:svg="http://www.w3.org/2000/svg">
  <sodipodi:namedview
     id="namedview7"
     pagecolor="#ffffff"
     bordercolor="#666666"
     borderopacity="1.0"
     inkscape:pageshadow="2"
     inkscape:pageopacity="0.0"
     inkscape:pagecheckerboard="0"
     inkscape:document-units="mm"
     showgrid="false"
     inkscape:zoom="0.92114197"
     inkscape:cx="401.13252"
     inkscape:cy="691.53292"
     inkscape:window-width="1368"
     inkscape:window-height="745"
     inkscape:window-x="-8"
     inkscape:window-y="-8"
     inkscape:window-maximized="1"
     inkscape:current-layer="layer1"
     inkscape:snap-bbox="false"
     inkscape:snap-global="true" />
  <defs
     id="defs2" />
  <g
     inkscape:label="Layer 1"
     inkscape:groupmode="layer"
     id="layer1"
     transform="translate(-143.99459,-68.710487)">
    <circle
       style="fill:#04aa6d;fill-opacity:1;stroke-width:2.84568;stroke-linecap:square;stroke-linejoin:round;paint-order:fill markers stroke"
       id="path846"
       cx="251.4946"
       cy="176.21049"
       r="107.5" />
    <path
       style="fill:#ffffff;fill-opacity:1;stroke-width:0.048111"
       d="m 224.37076,207.98561 c -0.021,-0.071 -4.97284,-13.98766 -10.99944,-30.9298 -6.02698,-16.9418 -10.97554,-30.85533 -10.99671,-30.91973 l -0.0348,-0.11752 10.9207,1.87453 10.9197,1.87509 3.49003,9.82357 c 1.91985,5.40248 3.50161,9.8255 3.51554,9.8286 0.0121,0.003 2.97778,-3.63392 6.58619,-8.08215 l 6.55973,-8.08729 12.18083,2.09096 12.18102,2.09053 7.246,20.35325 c 3.99234,11.21451 7.23148,20.38591 7.21291,20.4265 -0.0655,0.13691 -14.18251,17.53199 -14.20614,17.49931 -0.0121,-0.0178 -3.47269,-9.72311 -7.68886,-21.56769 -4.21668,-11.84427 -7.68462,-21.53621 -7.70721,-21.53732 -0.0204,-0.001 -6.42718,7.87319 -14.23098,17.49821 -7.8048,9.62499 -14.29177,17.62378 -14.41697,17.77504 -0.20948,0.25434 -0.2301,0.26739 -0.27674,0.17518 -0.0478,-0.0968 -0.0506,-0.0975 -0.12906,-0.0196 -0.0776,0.0758 -0.0819,0.0739 -0.12177,-0.0488 z M 291.21645,180.719 c -0.51901,-0.13639 -1.67781,-0.57587 -2.2355,-0.84472 -1.85595,-0.89535 -3.54859,-2.26029 -4.66824,-3.76635 l -0.23397,-0.31431 1.59035,-1.692 1.59012,-1.69196 0.26377,0.35056 c 0.74773,0.9924 1.93092,2.01067 3.05033,2.62664 2.8052,1.54292 6.02101,1.19205 7.4395,-0.81389 0.34243,-0.48509 0.47987,-0.80488 0.61697,-1.43723 0.43041,-1.98351 -0.53855,-3.68591 -2.657,-4.66818 -0.86954,-0.40313 -1.11413,-0.47226 -2.77434,-0.78324 l -1.56968,-0.29528 -0.33976,-1.3453 c -0.18835,-0.73909 -0.32346,-1.36981 -0.30401,-1.40086 0.0307,-0.0566 5.70836,-4.84139 6.48009,-5.46705 0.20506,-0.1672 0.70518,-0.54207 1.11085,-0.83449 l 0.73883,-0.53262 -5.31221,-0.89583 -5.31153,-0.89616 0.36625,-2.13508 0.36602,-2.13555 8.37027,1.43634 8.36957,1.43717 -0.2754,1.57533 -0.2757,1.57579 -4.00209,3.28453 c -2.20131,1.80614 -4.00509,3.30112 -4.00902,3.32159 -0.003,0.018 0.11485,0.0743 0.26055,0.1177 0.38738,0.11752 1.21973,0.49855 1.7194,0.78855 3.37765,1.96416 4.89213,5.37757 3.98712,8.98702 -0.91891,3.66691 -3.71495,6.21719 -7.43808,6.78499 -1.24931,0.1933 -2.24018,0.16339 -3.7054,-0.0987 -0.56439,-0.10506 -1.11136,-0.20848 -1.2144,-0.23501 z"
       id="path93"
       sodipodi:nodetypes="cccccccccccccscccccccccccccccccccscccccccccccccccssccccccc" />
    <text
       xml:space="preserve"
       style="font-weight:500;font-size:17.4625px;line-height:1.25;font-family:'Roboto Mono';-inkscape-font-specification:'Roboto Mono Medium';baseline-shift:baseline;fill:#ffffff;stroke-width:0.458136;letter-spacing:0.809625px"
       id="text18104"><textPath
         xlink:href="#path44843"
         id="textPath45358"
         style="font-size:17.4625px;stroke-width:0.458136">w<tspan
   style="font-size:17.4625px;stroke-width:0.458136"
   id="tspan57216">3sc</tspan><tspan
   style="font-size:17.4625px;stroke-width:0.458136"
   id="tspan51357">hoo</tspan><tspan
   id="tspan58888"
   style="font-size:17.4625px;stroke-width:0.458136">ls</tspan></textPath></text>
    <path
       style="fill:none;stroke:none;stroke-width:0.458136px;stroke-linecap:butt;stroke-linejoin:miter;stroke-opacity:1"
       d="m 222.63379,108.30937 c 34.00592,-16.561348 74.59281,0.62853 89.06277,23.86352"
       id="path44843"
       sodipodi:nodetypes="cc" />
    <text
       xml:space="preserve"
       style="font-weight:500;font-size:15.3458px;line-height:1.25;font-family:'Roboto Mono';-inkscape-font-specification:'Roboto Mono Medium';letter-spacing:2.38125px;stroke-width:0.458136"
       id="text64228"><textPath
         xlink:href="#path69006"
         id="textPath69217"
         style="font-size:15.3458px;fill:#ffffff;stroke-width:0.458136">CERTIFIED</textPath></text>
    <path
       style="fill:none;stroke:none;stroke-width:0.458136px;stroke-linecap:butt;stroke-linejoin:miter;stroke-opacity:1"
       d="m 167.15616,201.27766 c -2.73657,-9.94313 4.97557,49.96425 71.64825,63.13892"
       id="path69006"
       sodipodi:nodetypes="cc" />
    <path
       style="fill:none;stroke:none;stroke-width:0.458136px;stroke-linecap:butt;stroke-linejoin:miter;stroke-opacity:1"
       d="m 304.58287,257.02472 c 16.99285,-11.94727 27.93608,-24.86301 31.87385,-34.24867"
       id="path83462"
       sodipodi:nodetypes="cc" />
    <text
       xml:space="preserve"
       style="font-weight:500;font-size:15.3458px;line-height:1.25;font-family:'Roboto Mono';-inkscape-font-specification:'Roboto Mono Medium';letter-spacing:1.9605625px;stroke-width:0.458136"
       id="text84585"
       transform="translate(-6.7876795,-4.7884354)"><textPath
         xlink:href="#path83462"
         id="textPath90307"
         style="font-size:15.3458px;fill:#ffffff;stroke-width:0.458136">2022</textPath></text>
    <text
       xml:space="preserve"
       style="font-weight:500;font-size:18.3254px;line-height:1.25;font-family:'Roboto Mono';-inkscape-font-specification:'Roboto Mono Medium';fill:#ffffff;stroke-width:0.458136"
       x="263.10782"
       y="264.94788"
       id="text98044"
       transform="scale(1.0004028,0.99959738)"><tspan
         sodipodi:role="line"
         id="tspan98042"
         style="fill:#ffffff;stroke-width:0.458136"
         x="263.10782"
         y="264.94788">.</tspan></text>
  </g>
</svg>
