<?xml version="1.0" encoding="UTF-8" standalone="no"?>
<?xml-stylesheet type="text/css" href="w3school.css"?>

<svg
   width="575.46875mm"
   height="543.45416mm"
   viewBox="0 0 575.46875 543.45416"
   version="1.1"
   id="w3logo"
   xmlns="http://www.w3.org/2000/svg"
   xmlns:svg="http://www.w3.org/2000/svg">
  <defs
     id="defs2" />
  <g
     id="layer1"
     transform="translate(193.69322,112.33531)">
    <path
       style="fill:#04aa6d;stroke-width:0.264583;fill-opacity:1"
       d="m -168.29751,430.46842 c -4.86656,-0.80566 -10.26468,-2.895 -14.05735,-5.44092 -2.35839,-1.58314 -5.97221,-5.30778 -7.43784,-7.66596 -1.91674,-3.08398 -3.08312,-6.57572 -3.51207,-10.51393 l -0.18011,-1.65365 h 8.98496 8.98496 l 0.1553,1.3113 c 0.22253,1.87889 1.38344,4.05239 2.9618,5.54511 2.54329,2.40533 5.55647,3.45451 9.92119,3.45451 7.37698,0 12.46849,-3.61008 12.46849,-8.84066 0,-3.00405 -1.31949,-4.85642 -4.47552,-6.28303 -0.62434,-0.28221 -4.73199,-1.44814 -9.12813,-2.59096 -9.21555,-2.39567 -11.76792,-3.244 -15.32141,-5.0923 -4.68599,-2.43737 -7.93624,-5.52511 -10.00832,-9.50791 -2.71859,-5.22547 -3.10865,-12.36594 -0.96537,-17.67216 1.43548,-3.55388 4.3287,-7.19097 7.84587,-9.86313 2.61708,-1.98832 7.03251,-4.04231 10.72894,-4.99097 5.583,-1.43277 12.86211,-1.36803 18.77732,0.16708 11.34095,2.94318 18.24074,10.42697 19.07997,20.69489 l 0.1784,2.18281 h -9.12931 -9.12931 l -0.15989,-1.35003 c -0.52489,-4.43185 -5.76851,-7.78571 -11.37318,-7.27435 -4.60654,0.42029 -7.71465,2.66724 -8.78568,6.35145 -0.97814,3.36468 0.53251,6.23176 4.23775,8.04289 0.88359,0.43188 5.40039,1.79813 10.18646,3.0812 9.60889,2.57601 12.86072,3.73327 16.14408,5.74535 3.15159,1.93133 6.41886,5.27465 7.8428,8.02537 1.74968,3.37997 2.24831,5.30857 2.4033,9.29553 0.15011,3.86148 -0.23697,6.33007 -1.44656,9.2253 -3.09176,7.40032 -10.90468,13.01724 -21.1868,15.23172 -3.37288,0.72641 -11.28388,0.9352 -14.60474,0.38545 z m 90.619804,0.22574 c -10.85262,-1.60721 -18.54198,-5.27849 -25.412894,-12.13332 -5.65865,-5.64541 -9.02645,-11.84449 -10.75645,-19.79932 -0.50313,-2.31352 -0.58777,-3.52092 -0.597,-8.51652 -0.01,-5.1422 0.0605,-6.13905 0.60054,-8.55027 0.87723,-3.91689 1.73852,-6.3935 3.37545,-9.70598 2.70573,-5.47529 7.12875,-10.67488 12.172904,-14.31017 2.8137,-2.0278 8.29592,-4.80304 11.66726,-5.90622 4.83617,-1.58255 7.81642,-2.00935 13.97727,-2.00175 4.2679,0.005 6.10618,0.11707 7.9279,0.48215 5.63706,1.12969 11.31521,3.54554 15.62002,6.64577 3.1307,2.25465 8.23359,7.27512 7.7749,7.64932 -0.0561,0.0457 -3.04846,2.43536 -6.64971,5.31021 l -6.54772,5.22701 -1.94345,-1.81274 c -5.01035,-4.67339 -12.88057,-6.8289 -20.24033,-5.5435 -7.90219,1.38012 -14.27217,6.44247 -17.00722,13.51597 -1.21076,3.13132 -1.62124,5.41079 -1.62073,9.0002 5.3e-4,4.11351 0.67059,7.00919 2.44882,10.58334 2.86906,5.76667 7.8652,9.80731 14.28757,11.55509 1.92846,0.5248 2.84394,0.60859 6.47912,0.59293 3.82765,-0.0164 4.46153,-0.0876 6.61458,-0.74279 3.46251,-1.05357 6.73814,-2.87054 9.03161,-5.00975 l 1.93686,-1.80658 6.60839,5.24616 c 3.63461,2.88541 6.61381,5.37837 6.62045,5.53995 0.0228,0.55584 -5.22501,5.54824 -7.698,7.32327 -2.82503,2.02777 -7.28556,4.30202 -10.47162,5.33908 -4.31199,1.40356 -6.70747,1.76739 -12.2454,1.85986 -2.83765,0.0474 -5.51656,0.0332 -5.95312,-0.0314 z m 184.448336,-0.23561 c -13.586456,-2.20721 -24.383706,-9.96416 -30.304466,-21.77132 -5.97657,-11.9184 -5.40073,-28.08941 1.40978,-39.5904 5.70611,-9.63597 15.12403,-16.17408 26.965346,-18.71985 3.71335,-0.79833 12.46804,-0.86204 16.44766,-0.11967 13.69714,2.55505 24.81956,11.14049 30.04728,23.19358 4.88592,11.26511 4.42012,25.14952 -1.20513,35.92097 -1.94932,3.73264 -4.03534,6.574 -7.02373,9.56691 -5.55594,5.56432 -12.7471,9.37435 -21.05258,11.1541 -3.44456,0.7381 -11.76613,0.93723 -15.28416,0.36568 z m 12.66624,-18.09515 c 7.49199,-2.18895 13.22128,-8.12165 15.22772,-15.7684 0.84812,-3.23217 0.97653,-8.04539 0.30142,-11.29826 -2.31347,-11.14703 -11.53216,-18.40799 -22.67289,-17.85792 -4.52919,0.2236 -7.97203,1.416 -11.67929,4.04498 -8.260496,5.85787 -11.329186,18.06543 -7.145146,28.42402 2.61594,6.47642 8.481366,11.32999 15.517146,12.84029 2.46652,0.52943 8.02219,0.32496 10.45104,-0.38471 z m 86.56066,18.09634 c -9.26597,-1.50593 -16.66568,-5.21174 -22.94488,-11.49094 -5.78488,-5.78487 -9.23274,-12.26399 -10.88856,-20.46144 -0.51387,-2.54392 -0.5983,-3.76891 -0.5878,-8.52694 0.0135,-6.10923 0.3923,-8.67542 1.98454,-13.44504 4.54821,-13.62427 16.23864,-23.51109 31.07187,-26.27807 4.02061,-0.75002 12.7272,-0.67885 16.53646,0.13515 8.56864,1.83104 15.14233,5.3468 21.05145,11.25889 5.74567,5.74852 8.89527,11.57901 10.76412,19.9263 0.50073,2.2365 0.57807,3.37841 0.57809,8.53506 5e-5,5.2042 -0.0757,6.30264 -0.60227,8.73125 -1.84843,8.52596 -5.58697,15.2387 -11.6827,20.97696 -5.41478,5.09728 -12.1913,8.56454 -20.06183,10.26485 -3.39254,0.73293 -11.74668,0.93822 -15.21849,0.37397 z m 10.71658,-17.70108 c 11.49096,-2.20641 18.92809,-12.78249 17.66235,-25.11695 -0.58651,-5.71508 -2.87802,-10.52586 -6.78412,-14.24241 -7.13099,-6.785 -17.91951,-7.99002 -26.32331,-2.94021 -5.19631,3.12243 -8.84545,8.4727 -10.14159,14.86937 -0.61716,3.04591 -0.42119,8.82878 0.39526,11.66342 2.36472,8.20981 8.40984,13.98553 16.46939,15.73543 2.20832,0.47945 6.31145,0.49421 8.72202,0.0314 z m 125.50193,17.93775 c -2.22832,-0.32592 -6.25599,-1.28106 -7.91601,-1.87727 -9.60244,-3.44877 -16.19671,-10.4801 -17.98982,-19.18224 -0.23111,-1.12168 -0.42021,-2.58019 -0.42021,-3.24115 v -1.20179 h 8.80835 8.80835 l 0.44839,1.91061 c 0.81479,3.4717 3.49607,6.33653 7.12928,7.61725 2.33601,0.82343 6.83731,1.01679 9.56143,0.41074 4.05625,-0.90244 7.04678,-3.06544 8.08882,-5.8505 0.94594,-2.52825 0.61902,-4.87807 -0.93052,-6.68835 -1.56117,-1.82387 -3.40484,-2.54875 -12.21218,-4.80147 -4.47612,-1.1449 -9.03134,-2.40054 -10.12275,-2.79029 -7.20744,-2.57403 -12.55953,-6.65623 -15.03421,-11.4671 -1.86004,-3.61601 -2.43758,-6.08227 -2.45663,-10.4906 -0.0159,-3.67284 0.48647,-5.90973 2.01949,-8.993 3.63164,-7.30398 11.56994,-12.59758 21.07239,-14.05194 3.68515,-0.56401 10.4693,-0.36192 13.84584,0.41241 7.46971,1.71304 12.93955,4.84732 16.38765,9.39027 2.67579,3.52542 4.02289,7.11327 4.30244,11.45916 l 0.15743,2.44739 h -9.16699 -9.16699 l -0.003,-0.99218 c -0.004,-1.44473 -1.05817,-3.47094 -2.49065,-4.78621 -2.48468,-2.28134 -6.14067,-3.30967 -9.76403,-2.74635 -2.56834,0.39928 -4.14372,1.10935 -5.70831,2.57281 -3.18941,2.98334 -3.38171,7.55195 -0.42709,10.14614 1.74287,1.53027 3.86779,2.31669 12.57184,4.65285 4.72943,1.26939 9.79159,2.77284 11.24929,3.341 3.81519,1.48707 6.73785,3.36733 9.41729,6.05846 1.87783,1.88605 2.49433,2.72698 3.50946,4.78689 1.88603,3.82717 2.37186,6.15913 2.2262,10.68605 -0.10562,3.28308 -0.21431,3.99084 -0.92731,6.03715 -2.42075,6.94762 -8.26159,12.24135 -16.82332,15.24752 -4.16364,1.4619 -6.93782,1.91352 -12.35578,2.01139 -2.69213,0.0486 -5.25198,0.0362 -5.68854,-0.0276 z M -22.512086,369.07834 v -59.92813 h 9.6573 9.6572895 l 0.006,27.05365 0.006,27.05364 0.89686,-1.66415 c 3.23337005,-5.99956 10.82274,-10.53158 19.8609105,-11.86 6.71816,-0.98742 15.14213,0.82542 20.70235,4.45519 6.63971,4.33443 10.91705,11.47805 12.80909,21.39257 0.56238,2.94685 0.57928,3.65072 0.67795,28.22379 l 0.10119,25.20156 h -9.52513 -9.52514 l -0.0889,-23.0849 c -0.0881,-22.85907 -0.0947,-23.10561 -0.67329,-25.20156 -1.91573,-6.93907 -6.26538,-11.40407 -12.36901,-12.69698 -2.20317,-0.46667 -3.73911,-0.49578 -6.29173,-0.11914 -4.6416005,0.68482 -8.1472705,2.37458 -11.1935205,5.39538 -1.79429995,1.77932 -2.34477995,2.54201 -3.35089,4.64262 -2.23005,4.65606 -2.12533,3.31496 -2.23642,28.64114 l -0.0984,22.42344 h -9.5112595 -9.51127 v -59.92812 z m 297.920836,0.13229 v -59.79584 h 9.525 9.525 v 59.79584 59.79583 h -9.525 -9.525 z M -17.493206,255.15674 c -0.18835,-0.35364 -39.95168,-71.18752 -88.362964,-157.408607 -48.41128,-86.221093 -88.16298,-157.033514 -88.33711,-157.360936 l -0.31659,-0.595312 60.92962,0.0024 60.929624,0.0024 28.04584,49.996203 c 15.4252,27.497913 28.11056,49.999606 28.18967,50.00376 0.0791,0.0042 12.7609895,-22.465493 28.18196,-49.93255 l 28.03811,-49.940103 h 67.962516 67.96252 l 58.18974,103.575134 c 32.06242,57.069691 58.13941,103.767551 58.07766,104.003671 -0.21135,0.80827 -60.57515,108.22392 -60.73062,108.06845 -0.0855,-0.0854 -27.85925,-49.47166 -61.71954,-109.74714 C 135.68692,85.54859 107.88124,36.244433 107.75684,36.259274 107.6324,36.274114 80.241604,84.911148 46.888354,144.34156 c -33.35325,59.43042 -61.08055,108.82114 -61.61623,109.75713 -0.90133,1.57496 -1.00098,1.66489 -1.33637,1.20621 -0.35409,-0.48424 -0.37074,-0.48426 -0.72446,0 -0.34745,0.47517 -0.37587,0.46919 -0.7045,-0.14787 z M 319.46188,45.176264 c -2.94241,-0.265277 -9.62822,-1.560566 -12.8991,-2.499037 -10.89454,-3.125817 -21.33412,-8.95014 -28.80442,-16.070204 l -1.56017,-1.487014 7.04654,-10.650482 7.04652,-10.6504821 1.75765,1.654649 c 4.97393,4.6824131 12.33197,9.1040241 18.9706,11.3998931 16.63928,5.75442 33.74162,0.855649 39.56436,-11.3327451 1.40862,-2.948538 1.85598,-4.808842 2.01147,-8.364228 0.48773,-11.1516579 -6.34566,-19.4766319 -18.73917,-22.8295349 -5.08939,-1.376873 -6.47824,-1.523778 -15.76763,-1.667817 l -8.78168,-0.136165 -3.0902,-6.973822 c -1.69963,-3.835601 -3.02747,-7.126731 -2.95074,-7.313625 0.13354,-0.325313 26.43857,-31.55143 30.04156,-35.661682 0.95671,-1.091406 3.31759,-3.591718 5.24637,-5.55625 l 3.50689,-3.571879 -29.62182,0.0749 -29.62182,0.0748 v -11.91496 -11.914959 h 46.69896 46.69895 l -0.0127,8.7974 -0.0127,8.797399 -18.6404,21.52511 c -10.25223,11.838813 -18.64042,21.617985 -18.64042,21.731494 0,0.113509 0.68461,0.290676 1.52135,0.39371 2.20986,0.272108 7.07406,1.567826 10.05174,2.67757 20.1314,7.502689 31.51182,24.594352 29.96297,44.9997959 -1.57347,20.7296491 -14.356,37.1545301 -34.00739,43.6976891 -6.59313,2.19525 -11.99023,2.973773 -20.17607,2.910358 -3.15762,-0.02447 -6.21739,-0.08742 -6.79948,-0.139893 z"
       id="path93" />
  </g>
</svg>
